# xmcd
#
# Track frame offsets: 
#        150
#        15865
#        36093
#        54833
#        69246
#        87163
#        106012
#        125759
#        141528
#        169113
#        187586
#        204526
#
# Disc length: 2938 seconds
#
# Revision: 0
# Processed by: cddbd v1.5.2PL0 Copyright (c) Steve Scherf et al.
# Submitted via: ExactAudioCopy v0.95b2
#
DISCID=920b780c
DTITLE=Eugene 'Hideaway' Bridges - Eugene 'Hideaway' Bridges
DYEAR=2007
DGENRE=Blues
TTITLE0=Piece of the mountain
TTITLE1=Life has no meaning
TTITLE2=Special friend
TTITLE3=Never alone
TTITLE4=Baby your love
TTITLE5=In your arms tonight
TTITLE6=Look at me now
TTITLE7=Ain't got time
TTITLE8=Love got the best of me
TTITLE9=Big legged woman
TTITLE10=I can't wait
TTITLE11=Man and his guitar
EXTD=
EXTT0=
EXTT1=
EXTT2=
EXTT3=
EXTT4=
EXTT5=
EXTT6=
EXTT7=
EXTT8=
EXTT9=
EXTT10=
EXTT11=
PLAYORDER=
